<svg width="22" height="22" viewBox="0 0 22 22" fill="none" xmlns="http://www.w3.org/2000/svg">
<path d="M10.9999 19.2271L10.0603 18.3792C8.44444 16.8954 7.10852 15.6154 6.05258 14.5393C4.99664 13.4631 4.15547 12.5011 3.52909 11.6532C2.9027 10.8052 2.46346 10.0375 2.21138 9.35003C1.95929 8.66253 1.83325 7.96739 1.83325 7.26462C1.83325 5.88725 2.2954 4.73701 3.21971 3.81389C4.14402 2.89076 5.28603 2.4292 6.64575 2.4292C7.51659 2.4292 8.32249 2.63545 9.06346 3.04795C9.80443 3.46045 10.4499 4.05628 10.9999 4.83545C11.6416 4.01045 12.3214 3.40316 13.0395 3.01357C13.7576 2.62399 14.5291 2.4292 15.3541 2.4292C16.7138 2.4292 17.8558 2.89076 18.7801 3.81389C19.7044 4.73701 20.1666 5.88725 20.1666 7.26462C20.1666 7.96739 20.0405 8.66253 19.7885 9.35003C19.5364 10.0375 19.0971 10.8052 18.4708 11.6532C17.8444 12.5011 17.0032 13.4631 15.9473 14.5393C14.8913 15.6154 13.5554 16.8954 11.9395 18.3792L10.9999 19.2271ZM10.9999 17.4167C12.5466 15.9959 13.8194 14.7776 14.8182 13.7615C15.8171 12.7455 16.6107 11.8556 17.1989 11.0917C17.7871 10.3278 18.1996 9.64692 18.4364 9.04902C18.6732 8.45111 18.7916 7.85742 18.7916 7.26794C18.7916 6.25739 18.4708 5.42746 17.8291 4.77816C17.1874 4.12885 16.3641 3.8042 15.3592 3.8042C14.5721 3.8042 13.8435 4.04482 13.1736 4.52607C12.5036 5.00732 11.9624 5.68337 11.5499 6.5542H10.427C10.0298 5.69864 9.4962 5.02642 8.82627 4.53753C8.15633 4.04864 7.42777 3.8042 6.6406 3.8042C5.6357 3.8042 4.81242 4.12885 4.17075 4.77816C3.52909 5.42746 3.20825 6.2587 3.20825 7.27186C3.20825 7.86286 3.32665 8.4601 3.56346 9.06357C3.80027 9.66705 4.21277 10.3545 4.80096 11.1261C5.38915 11.8976 6.18742 12.7875 7.19575 13.7959C8.20409 14.8042 9.47214 16.0111 10.9999 17.4167Z" fill="#55A3FF"/>
</svg>
